<?xml version="1.0" standalone="no"?>
<!DOCTYPE svg PUBLIC "-//W3C//DTD SVG 20010904//EN"
 "http://www.w3.org/TR/2001/REC-SVG-20010904/DTD/svg10.dtd">
<svg version="1.0" xmlns="http://www.w3.org/2000/svg"
 width="797.000000pt" height="797.000000pt" viewBox="0 0 797.000000 797.000000"
 preserveAspectRatio="xMidYMid meet">
<metadata>
Created by potrace 1.14, written by Peter Selinger 2001-2017
</metadata>
<g transform="translate(0.000000,797.000000) scale(0.100000,-0.100000)"
fill="#000000" stroke="none">
<path d="M6696 7268 c8 -53 12 -74 34 -158 17 -70 18 -75 20 -75 1 0 3 -7 5
-15 1 -8 18 -71 38 -140 52 -185 65 -250 85 -409 14 -115 6 -415 -13 -511 -3
-14 -8 -41 -11 -60 -3 -19 -8 -38 -10 -41 -2 -3 -6 -20 -9 -37 -3 -17 -21 -77
-41 -134 -20 -57 -41 -118 -47 -135 -6 -18 -14 -33 -19 -33 -4 0 -8 -7 -8 -15
0 -14 -30 -85 -40 -95 -3 -3 -13 -21 -24 -40 -10 -19 -29 -54 -41 -77 -13 -23
-33 -54 -44 -69 -12 -15 -21 -32 -21 -40 0 -7 -3 -14 -7 -16 -13 -5 -63 -76
-63 -88 0 -6 -4 -8 -10 -5 -5 3 -10 2 -10 -3 0 -12 -121 -164 -167 -210 -18
-19 -33 -38 -33 -43 0 -5 -6 -8 -12 -7 -7 2 -13 -1 -12 -7 0 -5 -37 -46 -83
-91 -46 -45 -83 -80 -83 -78 0 2 -15 -11 -33 -29 -40 -38 -101 -91 -152 -132
-21 -16 -45 -37 -54 -45 -9 -9 -38 -31 -64 -49 -26 -19 -47 -38 -47 -43 0 -5
-5 -6 -10 -3 -6 3 -13 -1 -16 -9 -3 -9 -10 -16 -16 -16 -5 0 -15 -6 -22 -12
-8 -7 -24 -20 -36 -28 -13 -8 -32 -23 -42 -32 -10 -10 -18 -16 -18 -13 0 3 -9
-3 -21 -14 -12 -11 -34 -25 -50 -31 -16 -7 -26 -16 -23 -21 3 -5 -4 -9 -16 -9
-12 0 -18 -4 -15 -10 3 -5 0 -10 -8 -10 -8 0 -24 -9 -37 -20 -13 -11 -26 -20
-30 -20 -4 0 -20 -11 -35 -24 -16 -14 -32 -23 -37 -20 -4 3 -8 0 -8 -5 0 -6
-7 -11 -15 -11 -8 0 -15 -4 -15 -10 0 -5 -7 -10 -15 -10 -9 0 -18 -7 -21 -15
-4 -8 -14 -15 -24 -15 -11 0 -21 -4 -24 -9 -8 -12 -223 -141 -236 -141 -5 0
-10 -5 -10 -12 0 -6 -3 -9 -6 -5 -4 3 -26 -7 -50 -23 -23 -17 -50 -30 -59 -30
-8 0 -18 -7 -21 -15 -4 -8 -15 -15 -25 -15 -10 0 -19 -3 -19 -7 0 -5 -10 -13
-23 -18 -39 -19 -152 -79 -157 -85 -3 -3 -12 -6 -20 -8 -8 -2 -23 -11 -34 -20
-10 -9 -21 -16 -25 -16 -3 1 -23 -7 -43 -17 -21 -10 -39 -19 -42 -19 -7 0 -28
22 -67 70 -18 24 -48 57 -64 75 -17 17 -42 47 -57 67 -15 19 -43 51 -62 72
-20 20 -36 38 -36 41 0 2 -77 83 -172 180 -95 96 -175 180 -179 186 -3 6 -8
10 -10 9 -12 -4 -39 14 -39 26 0 8 -3 14 -7 14 -5 0 -23 14 -42 30 -18 17 -38
30 -43 30 -5 0 -6 5 -3 10 3 6 -1 10 -9 10 -9 0 -21 9 -28 20 -7 11 -18 20
-25 20 -6 0 -13 3 -15 8 -1 4 -34 31 -73 59 -38 29 -81 62 -95 73 -14 11 -31
20 -37 20 -7 0 -13 4 -13 8 0 5 -19 19 -43 32 -23 13 -44 26 -47 29 -3 4 -26
17 -52 30 -27 13 -48 28 -48 32 0 4 -13 10 -29 14 -16 3 -35 13 -42 21 -6 8
-17 14 -24 14 -7 0 -44 14 -81 31 -108 48 -159 67 -159 59 0 -2 -10 2 -23 9
-33 17 -190 56 -292 71 -127 20 -484 17 -518 -4 -4 -2 -28 -7 -55 -10 -26 -4
-57 -10 -70 -15 -12 -5 -25 -9 -30 -9 -29 -2 -171 -43 -237 -69 -8 -4 -17 -7
-20 -7 -5 -1 -89 -34 -155 -61 -72 -29 -171 -66 -180 -67 -20 -3 -321 -158
-372 -192 -29 -19 -53 -32 -53 -28 0 4 -4 3 -8 -3 -10 -14 -70 -55 -80 -55 -4
0 -17 -8 -28 -18 -10 -9 -39 -31 -64 -47 -80 -53 -190 -138 -190 -147 0 -5 -4
-6 -10 -3 -5 3 -15 -3 -22 -15 -7 -11 -17 -20 -23 -20 -6 0 -18 -8 -27 -17 -8
-10 -74 -67 -145 -128 -71 -60 -137 -120 -146 -132 -16 -21 -16 -21 16 -16 17
3 39 8 47 13 8 4 33 11 55 15 22 5 45 10 50 11 10 3 31 7 120 24 131 24 353
29 495 10 91 -12 263 -52 320 -74 128 -51 184 -75 250 -109 41 -22 77 -42 80
-45 3 -4 26 -18 53 -32 26 -13 47 -28 47 -32 0 -5 5 -8 10 -8 6 0 16 -5 23
-10 7 -6 44 -34 82 -62 39 -29 75 -57 82 -63 6 -5 30 -26 54 -45 92 -75 329
-319 409 -421 41 -52 57 -71 88 -107 13 -15 37 -46 53 -69 17 -24 35 -43 40
-43 6 0 7 -4 4 -10 -3 -5 3 -17 15 -27 11 -10 20 -21 20 -26 0 -4 11 -19 25
-33 14 -14 25 -31 25 -39 0 -7 4 -15 9 -17 11 -4 191 -276 191 -289 0 -5 5 -9
10 -9 6 0 10 -7 10 -15 0 -8 3 -15 8 -15 4 0 13 -12 19 -28 7 -15 28 -50 47
-79 19 -28 31 -54 28 -57 -3 -3 0 -6 6 -6 7 0 12 -7 12 -15 0 -8 4 -15 9 -15
5 0 11 -8 14 -17 11 -32 77 -147 90 -155 7 -4 8 -8 3 -8 -5 0 -4 -6 2 -13 9
-11 45 -76 103 -187 13 -25 27 -47 32 -48 4 -2 7 -13 7 -23 0 -11 5 -17 10
-14 6 3 10 -1 10 -10 0 -18 40 -96 55 -107 6 -4 7 -8 2 -8 -4 0 4 -18 18 -40
14 -22 25 -46 25 -53 0 -7 6 -19 12 -25 7 -7 13 -16 14 -20 1 -13 119 -247
127 -253 5 -3 8 -9 8 -13 -1 -3 12 -34 28 -69 114 -243 153 -324 161 -339 6
-10 10 -25 10 -33 0 -16 16 -21 22 -7 4 11 213 92 236 92 10 0 26 6 37 13 11
8 54 26 95 41 76 28 89 33 150 59 19 8 87 33 150 56 63 23 124 46 135 51 11 6
52 21 90 35 39 14 79 30 90 34 11 5 65 26 120 46 55 20 114 43 130 50 17 7 55
21 85 31 30 10 57 20 60 23 3 3 43 19 90 35 47 17 96 36 110 43 14 7 31 13 38
13 7 0 20 4 30 10 17 9 278 110 285 110 3 0 21 7 41 15 20 8 38 15 41 15 3 -1
18 6 33 14 15 8 69 29 119 48 51 18 95 38 97 44 4 9 -85 152 -129 209 -8 10
-15 25 -15 32 0 6 -6 16 -12 20 -14 9 -33 36 -47 68 -5 12 -16 27 -25 34 -9 7
-16 18 -16 24 0 5 -11 24 -24 42 -13 17 -21 36 -18 41 4 6 34 29 67 52 88 62
104 74 152 109 24 18 43 31 43 28 0 -3 8 3 19 13 19 17 42 35 81 62 12 8 67
49 123 90 55 41 109 79 119 85 10 5 18 13 18 17 0 5 7 8 16 8 8 0 12 5 9 10
-3 6 0 10 8 10 7 0 24 11 37 25 13 14 26 23 28 20 3 -2 12 3 21 13 13 14 73
63 116 94 6 4 29 23 51 42 23 20 44 36 47 36 4 0 23 15 43 33 48 42 75 66 119
102 20 17 52 45 71 62 19 18 34 31 34 29 0 -3 123 110 211 195 27 26 51 44 54
41 3 -3 5 -1 5 5 0 6 29 40 65 75 36 36 65 70 65 76 0 7 4 12 9 12 5 0 27 19
48 42 21 23 48 52 60 65 12 13 19 23 15 23 -3 0 4 7 16 16 12 8 22 20 22 25 0
5 10 20 23 32 13 12 34 38 47 57 14 19 35 46 47 60 13 14 23 28 23 32 0 3 6
13 14 21 28 28 141 205 152 240 4 9 10 17 15 17 5 0 9 5 9 11 0 6 10 25 22 42
13 18 21 32 19 32 -2 0 12 32 31 70 19 39 35 72 35 75 3 12 24 67 33 85 5 11
14 38 21 60 6 22 14 45 18 50 3 6 6 15 7 20 1 6 7 30 14 55 7 25 14 54 16 65
2 11 8 43 14 70 5 28 14 74 20 103 12 66 13 403 0 457 -5 22 -11 58 -14 80 -9
71 -30 166 -60 267 -10 32 -17 61 -18 65 0 5 -3 13 -7 18 -4 6 -18 43 -31 83
-14 39 -28 72 -32 72 -5 0 -8 11 -8 25 0 14 -4 25 -10 25 -5 0 -10 7 -10 15 0
9 -7 27 -16 40 -9 14 -12 25 -8 25 5 0 5 4 -1 8 -5 4 -27 41 -47 82 -54 107
-92 174 -100 178 -5 2 -8 10 -8 18 0 8 -5 14 -11 14 -5 0 -8 4 -5 8 3 5 -3 18
-14 29 -10 12 -16 24 -13 27 4 3 1 6 -5 6 -7 0 -12 7 -12 15 0 8 -4 15 -10 15
-5 0 -10 6 -10 14 0 8 -3 16 -7 18 -8 3 -73 95 -73 103 0 3 -6 13 -14 22 -8
10 -36 47 -63 83 -26 36 -51 67 -55 68 -5 2 -8 8 -8 13 0 6 -13 24 -30 42 -16
18 -30 35 -30 38 0 3 -10 17 -22 30 -13 14 -39 44 -58 68 -19 23 -44 53 -55
65 -11 13 -49 56 -85 97 -36 41 -84 93 -106 116 -23 23 -39 45 -36 48 3 3 -2
5 -12 5 -9 0 -14 5 -11 10 3 6 -1 10 -9 10 -9 0 -16 3 -16 8 0 8 -116 132
-124 132 -2 0 -2 -15 0 -32z"/>
</g>
</svg>
